<svg width="272" height="192" viewBox="0 0 272 192" fill="none" xmlns="http://www.w3.org/2000/svg">
<path d="M55.7656 127.844C53.1094 127.844 50.9219 127.635 49.2031 127.219C47.5365 126.75 46.1562 125.969 45.0625 124.875C43.9688 123.781 43.1875 122.401 42.7188 120.734C42.3021 119.068 42.0938 116.88 42.0938 114.172V79.25C42.0938 76.4896 42.3021 74.276 42.7188 72.6094C43.1875 70.8906 43.9688 69.4844 45.0625 68.3906C46.1042 67.2969 47.4844 66.5417 49.2031 66.125C50.9219 65.6562 53.1875 65.4219 56 65.4219H191.156C193.812 65.4219 195.974 65.6562 197.641 66.125C199.359 66.5417 200.766 67.2969 201.859 68.3906C202.953 69.4844 203.708 70.8646 204.125 72.5312C204.594 74.1979 204.828 76.3854 204.828 79.0938V114.172C204.828 119.276 203.839 122.844 201.859 124.875C200.766 125.969 199.359 126.75 197.641 127.219C195.974 127.635 193.812 127.844 191.156 127.844H55.7656ZM62.0156 149.484C55.349 149.484 49.2552 148.964 43.7344 147.922C38.2656 146.828 33.526 144.276 29.5156 140.266C25.5052 136.307 22.9792 131.594 21.9375 126.125C20.8958 120.604 20.375 114.51 20.375 107.844V85.1875C20.375 78.6771 20.8958 72.6875 21.9375 67.2188C23.0312 61.75 25.5573 57.0104 29.5156 53C33.526 49.0417 38.2656 46.5156 43.7344 45.4219C49.2552 44.3281 55.2969 43.7812 61.8594 43.7812H184.828C191.495 43.7812 197.589 44.3281 203.109 45.4219C208.63 46.4635 213.396 48.9896 217.406 53C221.365 56.9583 223.865 61.6979 224.906 67.2188C226 72.6875 226.547 78.7552 226.547 85.4219V107.844C226.547 114.51 226 120.604 224.906 126.125C223.865 131.594 221.365 136.307 217.406 140.266C213.396 144.276 208.63 146.828 203.109 147.922C197.589 148.964 191.495 149.484 184.828 149.484H62.0156ZM59.9062 136.906H187.016C191.026 136.906 194.958 136.542 198.812 135.812C202.719 135.031 205.844 133.469 208.188 131.125C210.583 128.729 212.146 125.63 212.875 121.828C213.604 117.974 213.969 114.016 213.969 109.953V83.2344C213.969 79.224 213.604 75.3177 212.875 71.5156C212.146 67.6615 210.583 64.5365 208.188 62.1406C205.844 59.7969 202.719 58.2604 198.812 57.5312C194.958 56.75 191.026 56.3594 187.016 56.3594H60.1406C56.026 56.3594 51.9896 56.724 48.0312 57.4531C44.125 58.1823 41 59.7448 38.6562 62.1406C36.3125 64.4844 34.776 67.6094 34.0469 71.5156C33.3177 75.3698 32.9531 79.3542 32.9531 83.4688V109.953C32.9531 114.016 33.3177 117.974 34.0469 121.828C34.776 125.63 36.3125 128.729 38.6562 131.125C41.0521 133.469 44.1771 135.031 48.0312 135.812C51.9375 136.542 55.8958 136.906 59.9062 136.906ZM237.172 116.828V76.4375C239.255 76.5417 241.417 77.4531 243.656 79.1719C245.896 80.8906 247.771 83.2344 249.281 86.2031C250.844 89.1719 251.625 92.6354 251.625 96.5938C251.625 100.604 250.844 104.094 249.281 107.062C247.771 110.031 245.896 112.375 243.656 114.094C241.417 115.76 239.255 116.672 237.172 116.828Z" fill="#34C759"/>
<path d="M55.7656 127.844C53.1094 127.844 50.9219 127.635 49.2031 127.219C47.5365 126.75 46.1562 125.969 45.0625 124.875C43.9688 123.781 43.1875 122.401 42.7188 120.734C42.3021 119.068 42.0938 116.88 42.0938 114.172V79.25C42.0938 76.4896 42.3021 74.276 42.7188 72.6094C43.1875 70.8906 43.9688 69.4844 45.0625 68.3906C46.1042 67.2969 47.4844 66.5417 49.2031 66.125C50.9219 65.6562 53.1875 65.4219 56 65.4219H191.156C193.812 65.4219 195.974 65.6562 197.641 66.125C199.359 66.5417 200.766 67.2969 201.859 68.3906C202.953 69.4844 203.708 70.8646 204.125 72.5312C204.594 74.1979 204.828 76.3854 204.828 79.0938V114.172C204.828 119.276 203.839 122.844 201.859 124.875C200.766 125.969 199.359 126.75 197.641 127.219C195.974 127.635 193.812 127.844 191.156 127.844H55.7656ZM62.0156 149.484C55.349 149.484 49.2552 148.964 43.7344 147.922C38.2656 146.828 33.526 144.276 29.5156 140.266C25.5052 136.307 22.9792 131.594 21.9375 126.125C20.8958 120.604 20.375 114.51 20.375 107.844V85.1875C20.375 78.6771 20.8958 72.6875 21.9375 67.2188C23.0312 61.75 25.5573 57.0104 29.5156 53C33.526 49.0417 38.2656 46.5156 43.7344 45.4219C49.2552 44.3281 55.2969 43.7812 61.8594 43.7812H184.828C191.495 43.7812 197.589 44.3281 203.109 45.4219C208.63 46.4635 213.396 48.9896 217.406 53C221.365 56.9583 223.865 61.6979 224.906 67.2188C226 72.6875 226.547 78.7552 226.547 85.4219V107.844C226.547 114.51 226 120.604 224.906 126.125C223.865 131.594 221.365 136.307 217.406 140.266C213.396 144.276 208.63 146.828 203.109 147.922C197.589 148.964 191.495 149.484 184.828 149.484H62.0156ZM59.9062 136.906H187.016C191.026 136.906 194.958 136.542 198.812 135.812C202.719 135.031 205.844 133.469 208.188 131.125C210.583 128.729 212.146 125.63 212.875 121.828C213.604 117.974 213.969 114.016 213.969 109.953V83.2344C213.969 79.224 213.604 75.3177 212.875 71.5156C212.146 67.6615 210.583 64.5365 208.188 62.1406C205.844 59.7969 202.719 58.2604 198.812 57.5312C194.958 56.75 191.026 56.3594 187.016 56.3594H60.1406C56.026 56.3594 51.9896 56.724 48.0312 57.4531C44.125 58.1823 41 59.7448 38.6562 62.1406C36.3125 64.4844 34.776 67.6094 34.0469 71.5156C33.3177 75.3698 32.9531 79.3542 32.9531 83.4688V109.953C32.9531 114.016 33.3177 117.974 34.0469 121.828C34.776 125.63 36.3125 128.729 38.6562 131.125C41.0521 133.469 44.1771 135.031 48.0312 135.812C51.9375 136.542 55.8958 136.906 59.9062 136.906ZM237.172 116.828V76.4375C239.255 76.5417 241.417 77.4531 243.656 79.1719C245.896 80.8906 247.771 83.2344 249.281 86.2031C250.844 89.1719 251.625 92.6354 251.625 96.5938C251.625 100.604 250.844 104.094 249.281 107.062C247.771 110.031 245.896 112.375 243.656 114.094C241.417 115.76 239.255 116.672 237.172 116.828Z" fill="url(#paint0_linear_5490_21384)" fill-opacity="0.3" style="mix-blend-mode:overlay"/>
<defs>
<linearGradient id="paint0_linear_5490_21384" x1="136" y1="0" x2="136" y2="192" gradientUnits="userSpaceOnUse">
<stop stop-color="white"/>
<stop offset="1"/>
</linearGradient>
</defs>
</svg>
